<svg width="24" height="24" viewBox="0 0 24 24" fill="none" xmlns="http://www.w3.org/2000/svg">
<g id="Frame 1000002962">
<path id="Ellipse 1775" d="M24 12C24 18.6274 18.6274 24 12 24C5.37258 24 0 18.6274 0 12C0 5.37258 5.37258 0 12 0C18.6274 0 24 5.37258 24 12ZM1.7172 12C1.7172 17.679 6.32097 22.2828 12 22.2828C17.679 22.2828 22.2828 17.679 22.2828 12C22.2828 6.32097 17.679 1.7172 12 1.7172C6.32097 1.7172 1.7172 6.32097 1.7172 12Z" fill="#D9D9D9"/>
<path id="Ellipse 1776" d="M9.80004 0.203383C12.5471 -0.308913 15.3868 0.153546 17.8293 1.51099C20.2718 2.86843 22.164 5.03574 23.1795 7.63907C24.1951 10.2424 24.2702 13.1185 23.392 15.7713C22.5138 18.4241 20.7373 20.6873 18.3689 22.1704L17.4575 20.715C19.487 19.4441 21.0092 17.5048 21.7618 15.2317C22.5143 12.9585 22.4499 10.4939 21.5798 8.26312C20.7096 6.03233 19.0881 4.17516 16.9951 3.01197C14.9021 1.84877 12.4688 1.45249 10.1149 1.89148L9.80004 0.203383Z" fill="#E40084"/>
</g>
</svg>
